<svg xmlns="http://www.w3.org/2000/svg" width="23" height="13" viewBox="0 0 23 13" fill="none">
<path d="M7.88109 0.666992V1.48591L0.705322 0.666992H7.88109ZM7.88109 2.41402V3.23294L0.705322 2.41402H7.88109ZM7.88109 4.16106V4.97998L0.705322 4.16106H7.88109ZM7.88109 5.90809V6.72701L0.705322 5.90809H7.88109ZM7.88109 7.65512V8.47404L0.705322 7.65512H7.88109ZM7.88109 9.40215V10.2211L0.705322 9.40215H7.88109ZM7.88109 11.1674V11.9863L0.705322 11.1674H7.88109ZM14.363 12.0409V7.8553H14.1622L12.6467 12.0409H8.42886V0.666992H12.0624L11.7337 7.01818H11.8433L14.2169 0.666992H16.974V7.01818H17.0836L19.0373 0.666992H22.6708L18.9643 12.0409H14.363Z" fill="#00CF84"/>
</svg>